<?xml version="1.0" encoding="UTF-8"?>
<!DOCTYPE svg PUBLIC "-//W3C//DTD SVG 1.0//EN" "http://www.w3.org/TR/2001/REC-SVG-20010904/DTD/svg10.dtd">
<!-- Creator: CorelDRAW 2018 -->
<svg xmlns="http://www.w3.org/2000/svg" xml:space="preserve" width="48.5079mm" height="15.6311mm" version="1.0" shape-rendering="geometricPrecision" text-rendering="geometricPrecision" image-rendering="optimizeQuality" fill-rule="evenodd" clip-rule="evenodd"
viewBox="0 0 854.96 275.5"
 xmlns:xlink="http://www.w3.org/1999/xlink">
 <defs>
    <linearGradient id="id0" gradientUnits="userSpaceOnUse" x1="18.99" y1="275.5" x2="18.99" y2="172.45">
     <stop offset="0" stop-opacity="1" stop-color="#EE761C"/>
     <stop offset="0.501961" stop-opacity="1" stop-color="#C35D1D"/>
     <stop offset="1" stop-opacity="1" stop-color="#78432B"/>
    </linearGradient>
    <linearGradient id="id1" gradientUnits="userSpaceOnUse" x1="48.45" y1="184.06" x2="48.36" y2="245.87">
     <stop offset="0" stop-opacity="1" stop-color="#F3F8EF"/>
     <stop offset="0.509804" stop-opacity="1" stop-color="#649D81"/>
     <stop offset="1" stop-opacity="1" stop-color="#558864"/>
    </linearGradient>
    <linearGradient id="id2" gradientUnits="userSpaceOnUse" x1="68.71" y1="247.21" x2="68.71" y2="194.15">
     <stop offset="0" stop-opacity="1" stop-color="#EE761C"/>
     <stop offset="0.501961" stop-opacity="1" stop-color="#C35D1D"/>
     <stop offset="1" stop-opacity="1" stop-color="#78432B"/>
    </linearGradient>
    <linearGradient id="id3" gradientUnits="userSpaceOnUse" x1="86.49" y1="184.23" x2="86.49" y2="245.15">
     <stop offset="0" stop-opacity="1" stop-color="#F3F8EF"/>
     <stop offset="0.509804" stop-opacity="1" stop-color="#649D81"/>
     <stop offset="1" stop-opacity="1" stop-color="#558864"/>
    </linearGradient>
      <linearGradient id="id4" gradientUnits="userSpaceOnUse" x1="108.15" y1="239.37" x2="108.15" y2="194.11">
       <stop offset="0" stop-opacity="1" stop-color="#EE761C"/>
       <stop offset="0.501961" stop-opacity="1" stop-color="#C35D1D"/>
       <stop offset="1" stop-opacity="1" stop-color="#78432B"/>
      </linearGradient>
 </defs>
 <g id="Capa_x0020_1">
  <metadata id="CorelCorpID_0Corel-Layer"/>
  <g id="_797287160">
   <polygon fill="#727271" points="251.39,137.17 251.39,3.28 229.14,3.28 229.5,89.38 126.63,4.38 126.99,138.63 146.33,138.63 146.33,51.81 "/>
   <g>
    <path fill="#727271" d="M265.62 139.36l17.15 -29.18 -15.69 0 0 -20.43 25.9 0 47.06 -85.37 75.15 134.98 -26.63 0 -15.32 -29.18 -66.76 0 -16.06 29.18 -24.81 0 0 0 0 0zm49.98 -49.98l48.15 0 -24.08 -44.14 -24.08 44.14z"/>
   </g>
   <polygon fill="#727271" points="605.62,139.36 583.73,139.36 583.73,4.74 658.16,91.2 733.3,2.92 733.3,139.36 709.95,139.36 709.59,66.03 657.79,128.41 605.62,66.4 "/>
   <polygon fill="#727271" points="775.62,139.36 775.99,1.46 798.24,1.46 797.87,139.36 "/>
   <g>
    <path fill="red" d="M414.46 73.33c0,-40.49 32.83,-73.33 73.33,-73.33 40.49,0 73.33,32.83 73.33,73.33 0,40.49 -32.83,73.33 -73.33,73.33 -40.5,0 -73.33,-32.83 -73.33,-73.33l0 0zm73.33 51.44c28.45,0 51.44,-22.98 51.44,-51.44 0,-28.09 -22.98,-51.07 -51.44,-51.07 -28.09,0 -51.08,22.99 -51.08,51.07 0,28.45 22.99,51.44 51.08,51.44z"/>
   </g>
  </g>
  <g id="_797288552">
   <polygon fill="url(#id0)" fill-rule="nonzero" points="-0,275.31 24.9,172.45 37.99,225.11 25.58,275.5 "/>
   <polygon fill="url(#id1)" fill-rule="nonzero" points="24.9,172.45 50.2,172.45 71.91,257.86 46.32,257.86 "/>
   <polygon fill="url(#id2)" fill-rule="nonzero" points="65.51,182.6 78.3,232.28 71.91,257.86 59.11,207.28 "/>
   <polygon fill="url(#id3)" fill-rule="nonzero" points="65.51,182.6 82.22,247.53 107.47,247.53 90.48,182.6 "/>
   <g>
    <g>
     <polygon fill="url(#id4)" fill-rule="nonzero" points="121.72,192.74 107.47,247.53 94.58,198.36 96.52,192.74 "/>
    </g>
   </g>
  </g>
  <g id="_797289776">
   <path fill="#727271" fill-rule="nonzero" d="M224.18 254.31c-2.63,-3.77 -2.98,-5.75 10.59,-52.5 -22.85,0.19 -24.93,0 -24.93,0l4.53 -12.3 66.48 0 -3.78 12.3 -20.4 0c0,0 0.02,0.09 -15.11,54.81 -13.24,-0.05 -15.26,0.76 -17.39,-2.31z"/>
   <path fill="#727271" fill-rule="nonzero" d="M342.4 192.37c2.26,3.41 1.13,5.29 -15.47,64.26 -51.38,0.33 -50.25,-0.05 -52.9,-3.07 -2.99,-3.42 -1.13,-5.68 15.13,-64.04 52.22,0.01 50.99,-0.54 53.24,2.85zm-34.35 8.69l0 0 -12.09 44.57 12.09 0 12.09 -44.57 -12.09 0z"/>
   <path fill="#727271" fill-rule="nonzero" d="M341.29 256.62c-1.3,-1.08 1.7,-4.65 18.13,-67.11 83.38,-0.28 78.85,-1.11 81.68,3.14 1.62,2.43 1.4,3.87 -14.45,63.97 -27.19,-0.23 -23.23,0 -23.23,0l13.6 -57.83 -7.74 0 -15.11 57.83 -23.42 0 15.86 -57.83 -7.55 0 -15.86 57.83 -21.91 0z"/>
   <path fill="#727271" fill-rule="nonzero" d="M438.26 254.12c-0.85,-3.12 0,-2.56 16.34,-64.61 23.61,-0.56 22.66,0 22.66,0 0,0 -0.77,3.98 -18.89,67.11 -16.15,-0.23 -19.31,0.44 -20.11,-2.5z"/>
   <path fill="#727271" fill-rule="nonzero" d="M471.22 256.62l3.59 -12.63 35.97 0c0,0 0.47,-2.52 5,-19.52 -32.48,-0.1 -33.35,1.52 -35.88,-2.64 -1.15,-1.89 0.36,-3.42 7.93,-32.32 50.59,0.19 59.68,0 59.68,0l-3.02 10.79 -33.99 0.28c0,0 -0.4,-0.66 -4.53,12.56 33.99,-0.09 32.57,0.18 34.28,1.89 2.55,2.55 1.7,3.97 -8.59,41.59 -63.83,0.33 -60.43,0 -60.43,0z"/>
   <path fill="#727271" fill-rule="nonzero" d="M559.79 189.52c-18.7,63.55 -18.24,62.77 -16.15,65.46 1.98,2.55 5.1,1.47 84.7,1.7 15.86,-61.42 17.75,-67.16 17.75,-67.16l-23.42 0 -16.24 58.76 -8.31 0 16.24 -58.76 -22.66 0 -16.24 58.38 -8.31 0 16.24 -58.38c0,0 -3.78,0 -23.61,0z"/>
   <path fill="#727271" fill-rule="nonzero" d="M712.19 189.52c8.69,62.89 8.97,63.57 10.96,65.55 1.7,1.7 1.79,1.61 45.42,1.61 16.15,-63.74 0.85,-3.42 16.9,-67.16l-23.42 0 -13.88 57.72 -5 0 -6.8 -57.72c0,0 -5.76,-0.28 -24.17,0z"/>
   <path fill="#727271" fill-rule="nonzero" d="M854.96 189.52c0,0 -2.55,0.01 -57.41,0 -16.53,64.59 -16.53,64.28 -15.11,66.03 1.42,1.75 3.4,1.13 57.41,1.08 1.23,-7.88 1.51,-11.85 1.51,-11.85l-34.84 0 4.63 -19.55 30.5 -0.28 2.74 -11.8 -30.22 0 3.4 -12.84 35.13 0 2.27 -10.79z"/>
   <path fill="#727271" fill-rule="nonzero" d="M711.44 256.68l-23.42 0 -2.08 -16.72 -18.32 0 -4.91 16.72 -23.04 0c0,0 0,-2 18.51,-67.16 37.87,-0.28 39.28,-0.26 41.27,3.14 1.7,2.55 2,6.34 11.99,64.03zm-35.5 -56.16l0 0 -6.72 25.42 15.67 0 -2.04 -25.42 -6.91 0z"/>
   <path fill="#727271" fill-rule="nonzero" d="M211.36 256.68l-23.42 0 -2.08 -16.72 -18.32 0 -4.91 16.72 -23.04 0c0,0 0,-2 18.51,-67.16 37.87,-0.28 39.28,-0.26 41.27,3.14 1.7,2.55 2,6.34 11.99,64.03zm-35.5 -56.16l0 0 -6.72 25.42 15.67 0 -2.04 -25.42 -6.91 0z"/>
  </g>
 </g>
</svg>
